#!OML:ASF E:\motion texture\Top Level 1\Subject 1\Session 1\male.ASF
:FULLY-SPECIFIED
:DEGREES
487
root -17.5016 17.9762 4.63279 108.115 -87.1027 -102.542
lowerback -0.95855 -0.129544 2.31629
upperback -1.07651 -0.259179 4.39512
thorax -0.555859 -0.167446 3.21702
lowerneck -19.2687 1.01466 -1.74846
upperneck 21.3919 1.69762 0.484751
head 9.97279 0.644044 0.690538
rclavicle 1.93815e-015 -3.81667e-014
rhumerus -23.7366 -9.87942 -82.1363
rradius 35.5014
rwrist 13.001
rhand -14.3661 -26.408
rfingers 7.12502
rthumb 11.7761 -56.0569
lclavicle 1.93815e-015 -3.81667e-014
lhumerus -24.2132 -19.7065 96.432
lradius 57.6941
lwrist -21.0447
lhand -14.7256 18.6063
lfingers 7.12502
lthumb 11.4294 48.2748
rfemur -21.1542 -1.9622 24.0441
rtibia 20.6548
rfoot -3.12075 -14.1863
rtoes 19.4411
lfemur -9.26927 -0.811942 -12.5264
ltibia 48.0747
lfoot 5.0764 -1.26968
ltoes -18.4377
488
root -17.6508 17.988 4.5947 105.679 -86.8226 -100.144
lowerback -0.960731 -0.00346146 2.60441
upperback -1.03392 -0.0980373 4.44316
thorax -0.51751 -0.0899666 3.10543
lowerneck -19.2404 0.970189 -1.76969
upperneck 21.454 1.6379 0.493451
head 9.99024 0.614536 0.688899
rclavicle -1.2424e-015 -3.81667e-014
rhumerus -23.7791 -9.93051 -82.1338
rradius 35.3352
rwrist 13.0629
rhand -14.404 -26.3911
rfingers 7.12502
rthumb 11.7395 -56.0422
lclavicle -1.2424e-015 -3.81667e-014
lhumerus -24.8462 -19.2189 96.8586
lradius 56.665
lwrist -21.3054
lhand -14.7091 18.5457
lfingers 7.12502
lthumb 11.4453 48.2133
rfemur -20.4355 -1.90446 24.5225
rtibia 20.4405
rfoot -3.32438 -14.1052
rtoes 19.6781
lfemur -10.1444 -0.627823 -12.0474
ltibia 49.2229
lfoot 5.49168 -1.11611
ltoes -18.0213
489
root -17.7989 17.9999 4.55738 103.879 -86.5448 -98.3796
lowerback -0.961788 0.127067 2.8878
upperback -0.991183 0.0690906 4.48325
thorax -0.478515 -0.00924017 2.98854
lowerneck -19.213 0.923013 -1.79272
upperneck 21.5141 1.57338 0.508538
head 10.0072 0.583491 0.689127
rclavicle 2.43511e-015 -3.4191e-014
rhumerus -23.8207 -9.97301 -82.1315
rradius 35.1752
rwrist 13.1211
rhand -14.4409 -26.3721
rfingers 7.12502
rthumb 11.704 -56.0252
lclavicle 2.43511e-015 -3.4191e-014
lhumerus -25.4429 -18.6498 97.2233
lradius 55.5386
lwrist -21.557
lhand -14.6865 18.5057
lfingers 7.12502
lthumb 11.4671 48.1721
rfemur -19.7111 -1.84257 24.9893
rtibia 20.2032
rfoot -3.54307 -14.0307
rtoes 19.8818
lfemur -11.0382 -0.44076 -11.5925
ltibia 50.3153
lfoot 5.81986 -0.95633
ltoes -17.6321
490
root -17.946 18.0118 4.52092 102.597 -86.2709 -97.1283
lowerback -0.962091 0.261982 3.16674
upperback -0.94797 0.242103 4.5157
thorax -0.438212 0.074684 2.86655
lowerneck -19.1865 0.8735 -1.81783
upperneck 21.5716 1.50486 0.529169
head 10.0233 0.551172 0.691083
rclavicle -3.23025e-015 -7.23576e-014
rhumerus -23.8598 -10.003 -82.1303
rradius 35.0218
rwrist 13.1746
rhand -14.4762 -26.3536
rfingers 7.12502
rthumb 11.6699 -56.0086
lclavicle -3.23025e-015 -7.23576e-014
lhumerus -26.0027 -17.9942 97.5206
lradius 54.3216
lwrist -21.8033
lhand -14.6499 18.4861
lfingers 7.12502
lthumb 11.5024 48.1505
rfemur -18.9828 -1.77577 25.4449
rtibia 19.9476
rfoot -3.78129 -13.96
rtoes 20.0518
lfemur -11.9448 -0.249413 -11.1615
ltibia 51.3424
lfoot 6.06153 -0.789461
ltoes -17.2702
491
root -18.0919 18.0236 4.48534 101.718 -86.0042 -96.2778
lowerback -0.962432 0.400737 3.43962
upperback -0.904158 0.42027 4.54019
thorax -0.39592 0.161473 2.74004
lowerneck -19.1584 0.821838 -1.84607
upperneck 21.6241 1.43279 0.555727
head 10.0374 0.517768 0.695107
rclavicle 1.98785e-016 0
rhumerus -23.8962 -10.0205 -82.1303
rradius 34.8763
rwrist 13.2234
rhand -14.511 -26.3317
rfingers 7.12502
rthumb 11.6363 -55.9886
lclavicle 1.98785e-016 0
lhumerus -26.5223 -17.25 97.7451
lradius 53.0193
lwrist -22.0426
lhand -14.6056 18.4905
lfingers 7.12502
lthumb 11.5451 48.1526
rfemur -18.2528 -1.70532 25.8872
rtibia 19.6779
rfoot -4.04271 -13.8907
rtoes 20.1867
lfemur -12.8603 -0.0541967 -10.757
ltibia 52.2971
lfoot 6.21705 -0.615347
ltoes -16.9379
492
root -18.2367 18.0351 4.45065 101.153 -85.7472 -95.7361
lowerback -0.961558 0.542376 3.7045
upperback -0.860632 0.602518 4.55632
thorax -0.353163 0.250606 2.6097
lowerneck -19.1318 0.768403 -1.87762
upperneck 21.6734 1.35759 0.58911
head 10.0506 0.48356 0.701648
rclavicle -1.3418e-015 5.32743e-014
rhumerus -23.9291 -10.0232 -82.1327
rradius 34.7399
rwrist 13.2666
rhand -14.5464 -26.3078
rfingers 7.12502
rthumb 11.6022 -55.9666
lclavicle -1.3418e-015 5.32743e-014
lhumerus -27.0017 -16.4136 97.8914
lradius 51.6393
lwrist -22.2765
lhand -14.553 18.522
lfingers 7.12502
lthumb 11.5958 48.1811
rfemur -17.5237 -1.63071 26.3144
rtibia 19.3973
rfoot -4.32295 -13.8257
rtoes 20.2761
lfemur -13.7809 0.143758 -10.3802
ltibia 53.1713
lfoot 6.28616 -0.432011
ltoes -16.6383
493
root -18.3804 18.0464 4.41688 100.845 -85.5014 -95.4469
lowerback -0.958469 0.686193 3.96033
upperback -0.818978 0.788117 4.56419
thorax -0.312082 0.341696 2.47619
lowerneck -19.1028 0.713981 -1.91161
upperneck 21.7181 1.28061 0.626792
head 10.0618 0.448928 0.709825
rclavicle -2.13694e-015 2.94201e-014
rhumerus -23.9618 -10.0094 -82.1374
rradius 34.6155
rwrist 13.3037
rhand -14.5814 -26.2833
rfingers 7.12502
rthumb 11.5684 -55.9441
lclavicle -2.13694e-015 2.94201e-014
lhumerus -27.4436 -15.4793 97.9556
lradius 50.1895
lwrist -22.508
lhand -14.4906 18.5788
lfingers 7.12502
lthumb 11.6561 48.2346
rfemur -16.7972 -1.55268 26.7243
rtibia 19.1079
rfoot -4.61694 -13.7682
rtoes 20.315
lfemur -14.7018 0.343319 -10.0324
ltibia 53.9568
lfoot 6.27021 -0.239537
ltoes -16.3592
494
root -18.5229 18.0571 4.38399 100.732 -85.2675 -95.3463
lowerback -0.95675 0.831341 4.20604
upperback -0.776901 0.97559 4.56414
thorax -0.268275 0.434059 2.34053
lowerneck -19.0774 0.658754 -1.94676
upperneck 21.7591 1.20246 0.666667
head 10.0724 0.41403 0.718818
rclavicle -4.37326e-015 -1.90833e-014
rhumerus -23.9875 -9.97883 -82.1454
rradius 34.5012
rwrist 13.3351
rhand -14.6175 -26.2588
rfingers 7.12502
rthumb 11.5337 -55.9215
lclavicle -4.37326e-015 -1.90833e-014
lhumerus -27.8434 -14.4455 97.9319
lradius 48.6774
lwrist -22.7384
lhand -14.4201 18.6636
lfingers 7.12502
lthumb 11.724 48.3156
rfemur -16.0754 -1.469 27.1166
rtibia 18.8098
rfoot -4.92129 -13.7209
rtoes 20.3115
lfemur -15.6201 0.542294 -9.71313
ltibia 54.6463
lfoot 6.17421 -0.0375885
ltoes -16.1018
495
root -18.6644 18.0674 4.35204 100.784 -85.0458 -95.4045
lowerback -0.956453 0.977006 4.442
upperback -0.736114 1.16395 4.5561
thorax -0.223455 0.527175 2.20244
lowerneck -19.0533 0.603513 -1.9847
upperneck 21.7962 1.12426 0.710372
head 10.0818 0.379417 0.729618
rclavicle 1.99282e-014 2.22639e-014
rhumerus -24.0088 -9.92983 -82.1571
rradius 34.3986
rwrist 13.3603
rhand -14.6497 -26.2405
rfingers 7.12502
rthumb 11.5026 -55.9049
lclavicle 1.99282e-014 2.22639e-014
lhumerus -28.2045 -13.3054 97.8159
lradius 47.1099
lwrist -22.9751
lhand -14.3436 18.778
lfingers 7.12502
lthumb 11.7977 48.4257
rfemur -15.3606 -1.38235 27.4905
rtibia 18.5042
rfoot -5.22875 -13.6763
rtoes 20.2614
lfemur -16.5322 0.73902 -9.42304
ltibia 55.2333
lfoot 6.00067 0.174624
ltoes -15.8622
496
root -18.8049 18.0771 4.32106 100.954 -84.8343 -95.574
lowerback -0.956288 1.12289 4.67034
upperback -0.697423 1.35293 4.5408
thorax -0.179148 0.620852 2.06145
lowerneck -19.0305 0.54792 -2.0244
upperneck 21.8299 1.0457 0.755917
head 10.0903 0.344796 0.74131
rclavicle 1.82882e-014 3.33958e-014
rhumerus -24.026 -9.86406 -82.1715
rradius 34.3082
rwrist 13.3776
rhand -14.6878 -26.2187
rfingers 7.12502
rthumb 11.4658 -55.8852
lclavicle 1.82882e-014 3.33958e-014
lhumerus -28.5281 -12.0576 97.6054
lradius 45.4936
lwrist -23.2203
lhand -14.2605 18.9278
lfingers 7.12502
lthumb 11.8779 48.5709
rfemur -14.6526 -1.29065 27.8483
rtibia 18.1885
rfoot -5.53205 -13.6323
rtoes 20.1715
lfemur -17.4321 0.931285 -9.15865
ltibia 55.7076
lfoot 5.75358 0.39792
ltoes -15.6429
497
root -18.9444 18.0861 4.29106 101.233 -84.6319 -95.845
lowerback -0.957992 1.26834 4.89164
upperback -0.660138 1.54142 4.5192
thorax -0.133676 0.714544 1.91829
lowerneck -19.0091 0.492943 -2.06638
upperneck 21.8591 0.968507 0.802705
head 10.0975 0.310853 0.754006
rclavicle -1.62506e-014 3.02153e-014
rhumerus -24.0374 -9.78087 -82.1885
rradius 34.2299
rwrist 13.3886
rhand -14.7212 -26.2019
rfingers 7.12502
rthumb 11.4337 -55.8702
lclavicle -1.62506e-014 3.02153e-014
lhumerus -28.8181 -10.6952 97.2954
lradius 43.8397
lwrist -23.4808
lhand -14.1733 19.1099
lfingers 7.12502
lthumb 11.962 48.7481
rfemur -13.9554 -1.19765 28.1909
rtibia 17.8687
rfoot -5.82895 -13.5846
rtoes 20.0576
lfemur -18.3182 1.11841 -8.91842
ltibia 56.0673
lfoot 5.43583 0.631748
ltoes -15.4421
498
root -19.0829 18.0944 4.26211 101.608 -84.4379 -96.2034
lowerback -0.961572 1.41235 5.1067
upperback -0.625333 1.72814 4.49165
thorax -0.08815 0.807567 1.77285
lowerneck -18.9883 0.439463 -2.11066
upperneck 21.8842 0.89396 0.850362
head 10.1034 0.278121 0.767756
rclavicle 6.11263e-015 7.95139e-016
rhumerus -24.0438 -9.68142 -82.2083
rradius 34.1642
rwrist 13.3947
rhand -14.7555 -26.1881
rfingers 7.12502
rthumb 11.4006 -55.8582
lclavicle 6.11263e-015 7.95139e-016
lhumerus -29.0791 -9.21227 96.8814
lradius 42.1569
lwrist -23.7648
lhand -14.0868 19.3248
lfingers 7.12502
lthumb 12.0454 48.9581
rfemur -13.2706 -1.10274 28.5188
rtibia 17.5466
rfoot -6.11631 -13.5384
rtoes 19.917
lfemur -19.1861 1.29917 -8.7013
ltibia 56.3052
lfoot 5.05216 0.877305
ltoes -15.2514
